Coordinates
version=1
nRows=49
nColumns=12
inDegrees=yes

Units are S.I. units (second, meters, Newtons, ...)
Angles are in degrees

endheader
time	SC_y	SC_z	SC_x	AC_y	AC_z	AC_x	GH_y	GH_z	GH_yy	EL_x	PS_y
       0.0              -26.56          17.36          10.85          61.41         -5.226          13.31          16.24          12.57         -2.542          10.13          133.0
   0.01332              -26.56          17.36          10.85          61.41         -5.225          13.31          16.22          12.58         -2.543          10.14          133.0
   0.02664              -26.56          17.36          10.86          61.41         -5.223           13.3           16.2          12.58         -2.544          10.16          133.0
   0.03995              -26.57          17.37          10.86           61.4         -5.221           13.3          16.19          12.59         -2.545          10.18          132.9
   0.05327              -26.57          17.37          10.87           61.4         -5.219          13.29          16.17           12.6         -2.546           10.2          132.9
   0.06659              -26.57          17.37          10.87           61.4         -5.217          13.29          16.15           12.6         -2.547          10.23          132.9
   0.07991              -26.57          17.38          10.88          61.39         -5.215          13.29          16.13          12.61         -2.548          10.25          132.9
   0.09323              -26.57          17.38          10.88          61.39         -5.212          13.28          16.11          12.62         -2.549          10.28          132.9
    0.1065              -26.57          17.39          10.89          61.39         -5.209          13.27          16.08          12.63         -2.551           10.3          132.9
    0.1199              -26.57          17.39          10.89          61.38         -5.207          13.27          16.06          12.64         -2.552          10.33          132.8
    0.1332              -26.57           17.4           10.9          61.38         -5.204          13.26          16.03          12.65         -2.554          10.37          132.8
    0.1465              -26.58           17.4          10.91          61.37           -5.2          13.26           16.0          12.66         -2.555           10.4          132.8
    0.1598              -26.58          17.41          10.91          61.37         -5.197          13.25          15.97          12.67         -2.557          10.44          132.8
    0.1731              -26.58          17.41          10.92          61.36         -5.193          13.24          15.93          12.69         -2.559          10.48          132.8
    0.1865              -26.58          17.42          10.93          61.36         -5.189          13.23           15.9           12.7         -2.561          10.52          132.7
    0.1998              -26.58          17.43          10.94          61.35         -5.185          13.22          15.86          12.71         -2.564          10.57          132.7
    0.2131              -26.59          17.44          10.95          61.34          -5.18          13.21          15.81          12.73         -2.566          10.62          132.7
    0.2264              -26.59          17.45          10.96          61.33         -5.175           13.2          15.76          12.75         -2.569          10.67          132.6
    0.2397              -26.59          17.45          10.97          61.32         -5.169          13.19          15.71          12.77         -2.572          10.73          132.6
     0.253              -26.59          17.47          10.99          61.32         -5.163          13.18          15.66          12.79         -2.575           10.8          132.5
    0.2664               -26.6          17.48           11.0          61.31         -5.156          13.16          15.59          12.81         -2.578          10.87          132.5
    0.2797               -26.6          17.49          11.02          61.29         -5.148          13.15          15.52          12.84         -2.582          10.95          132.4
     0.293              -26.61           17.5          11.04          61.28          -5.14          13.13          15.45          12.87         -2.587          11.04          132.4
    0.3063              -26.61          17.52          11.06          61.27         -5.131          13.11          15.36           12.9         -2.591          11.13          132.3
    0.3196              -26.62          17.54          11.08          61.25         -5.121          13.09          15.27          12.94         -2.597          11.24          132.2
     0.333              -26.62          17.56          11.11          61.23         -5.109          13.06          15.16          12.98         -2.603          11.36          132.2
    0.3463              -26.63          17.58          11.13          61.21         -5.096          13.04          15.05          13.02         -2.609           11.5          132.1
    0.3596              -26.64           17.6          11.17          61.19         -5.082           13.0          14.91          13.07         -2.617          11.65          132.0
    0.3729              -26.64          17.63           11.2          61.17         -5.066          12.97          14.77          13.13         -2.625          11.82          131.8
    0.3862              -26.65          17.66          11.24          61.14         -5.047          12.93           14.6          13.19         -2.635          12.02          131.7
    0.3995              -26.66           17.7          11.29          61.11         -5.026          12.89           14.4          13.26         -2.646          12.24          131.6
    0.4129              -26.68          17.74          11.34          61.07         -5.002          12.84          14.18          13.35         -2.659           12.5          131.4
    0.4262              -26.69          17.79           11.4          61.03         -4.974          12.78          13.92          13.45         -2.673          12.79          131.2
    0.4395              -26.71          17.84          11.47          60.98         -4.941          12.71          13.63          13.56          -2.69          13.14          131.0
    0.4528              -26.73          17.91          11.56          60.92         -4.903          12.63          13.28          13.69          -2.71          13.54          130.7
    0.4661              -26.75          17.99          11.65          60.85         -4.858          12.53          12.87          13.85         -2.733          14.01          130.4
    0.4795              -26.78          18.08          11.77          60.77         -4.805          12.42          12.38          14.03         -2.761          14.58          130.0
    0.4928              -26.81          18.19          11.91          60.68         -4.741          12.28           11.8          14.25         -2.794          15.25          129.5
    0.5061              -26.85          18.32          12.08          60.56         -4.664          12.12          11.09          14.52         -2.834          16.07          129.0
    0.5194               -26.9          18.48          12.29          60.42         -4.569          11.92          10.22          14.85         -2.883          17.07          128.3
    0.5327              -26.96          18.68          12.54          60.24         -4.453          11.67          9.157          15.25         -2.943           18.3          127.5
     0.546              -27.03          18.93          12.86          60.02         -4.307          11.37          7.827          15.75         -3.019          19.83          126.4
    0.5594              -27.12          19.24          13.26          59.74         -4.124          10.98          6.151          16.39         -3.114          21.77          125.1
    0.5727              -27.24          19.64          13.77          59.39         -3.892          10.49          4.021          17.19         -3.235          24.23          123.5
     0.586              -27.39          20.15          14.42          58.94         -3.594          9.857          1.295          18.22         -3.389          27.37          121.4
    0.5993              -27.59           20.8          15.26          58.36         -3.211          9.048         -2.204          19.55         -3.588          31.41          118.6
    0.6126              -27.83          21.64          16.33          57.62         -2.723          8.015         -6.673          21.24         -3.841          36.57          115.2
     0.626              -28.15          22.69          17.67           56.7         -2.109          6.716         -12.29          23.36          -4.16          43.06          110.8
    0.6393              -28.53          23.97          19.31          55.56         -1.361          5.133         -19.14          25.95         -4.549          50.97          105.5
